<svg width="512" height="512" viewBox="0 0 512 512" fill="none" xmlns="http://www.w3.org/2000/svg">
<rect width="512" height="512" rx="60" fill="url(#paint0_linear_4_942)"/>
<circle opacity="0.35" cx="256" cy="256" r="210" fill="url(#paint1_radial_4_942)"/>
<path fill-rule="evenodd" clip-rule="evenodd" d="M153.917 167.492C149.43 167.492 145.127 169.274 141.955 172.447C138.782 175.619 137 179.922 137 184.408V330.242C137 334.728 138.782 339.031 141.955 342.204C145.127 345.376 149.43 347.158 153.917 347.158H256C262.765 347.158 268.25 352.643 268.25 359.408C268.25 366.174 262.765 371.658 256 371.658H153.917C142.932 371.658 132.398 367.295 124.631 359.528C116.864 351.761 112.5 341.226 112.5 330.242V184.408C112.5 173.424 116.864 162.89 124.631 155.122C132.398 147.355 142.932 142.992 153.917 142.992H358.083C369.068 142.992 379.602 147.355 387.369 155.122C395.136 162.89 399.5 173.424 399.5 184.408V244.068C399.5 250.834 394.016 256.318 387.25 256.318C380.484 256.318 375 250.834 375 244.068V184.408C375 179.922 373.218 175.619 370.045 172.447C366.873 169.274 362.57 167.492 358.083 167.492H153.917Z" fill="white"/>
<path fill-rule="evenodd" clip-rule="evenodd" d="M114.557 177.614C118.31 171.985 125.916 170.464 131.545 174.217L256 257.186L380.455 174.217C386.084 170.464 393.69 171.985 397.443 177.614C401.195 183.243 399.674 190.849 394.045 194.602L262.795 282.102C258.68 284.845 253.32 284.845 249.205 282.102L117.955 194.602C112.326 190.849 110.805 183.243 114.557 177.614Z" fill="white"/>
<path fill-rule="evenodd" clip-rule="evenodd" d="M395.172 286.429C400.332 290.804 400.969 298.534 396.594 303.695L344.889 364.679C342.638 367.335 339.363 368.907 335.883 369.003C332.403 369.099 329.047 367.71 326.653 365.182L302.789 339.993C298.136 335.082 298.345 327.328 303.257 322.675C308.168 318.022 315.922 318.232 320.575 323.143L335.039 338.412L377.906 287.851C382.281 282.69 390.011 282.054 395.172 286.429Z" fill="white"/>
<defs>
<linearGradient id="paint0_linear_4_942" x1="0" y1="0" x2="512" y2="512" gradientUnits="userSpaceOnUse">
<stop stop-color="#9C4DF9"/>
<stop offset="1" stop-color="#00B3F9"/>
</linearGradient>
<radialGradient id="paint1_radial_4_942" cx="0" cy="0" r="1" gradientUnits="userSpaceOnUse" gradientTransform="translate(256 256) rotate(90) scale(210)">
<stop stop-color="white"/>
<stop offset="1" stop-color="white" stop-opacity="0"/>
</radialGradient>
</defs>
</svg>
